<svg id="eighteen" xmlns="http://www.w3.org/2000/svg" viewBox="0 0 290.57 290.63">
  <title>logo-18</title>
  <g>
    <path d="M296.24,137.62c0,57-16.53,93.43-49,122.47-30.41,27.23-66.58,38.48-107,35.84-39.55-2.59-72.42-19.41-98.62-48.9C14.53,216.5,3.35,180.31,6.08,139.88c2.68-39.53,19.6-72.39,49.16-98.5C85.83,14.37,122.06,3.61,162.5,6,230.93,10,297.46,70,296.24,137.62ZM142.38,18.47C113.43,20,81,32,53.52,61.92,27.1,90.71,16,124.8,19.12,163.3c5.09,62.29,60.76,126.36,144.55,119.56,62.32-5.06,125.94-61.1,119.14-144.4C279.9,102.81,263.55,73.2,236.37,50,211.84,29.07,183.08,18.72,142.38,18.47Z" transform="translate(-5.68 -5.67)"/>
    <path d="M179.93,143c2.22,5.72,5.2,10.61,5.92,15.82,1.72,12.62-2,24.08-13.3,30.67-17.12,10-35.55,10.64-53.88,3.2-6.46-2.62-9.61-8.08-9.81-15.67-.47-17.8,6.73-25.2,16.23-33.1-8.13-8.62-7.53-18.7-4.08-28.9,3.65-10.77,12.35-16.1,22.66-19a57.93,57.93,0,0,1,35.79,1c8.41,3,13.58,10,13.53,19C192.92,127.46,189.23,137.17,179.93,143Zm-29.78,10.35A16.42,16.42,0,0,0,136,159.54c-5.27,6.39-3.85,14.27,3,17a19.41,19.41,0,0,0,17.31-1.43c7.81-4.42,9.3-15.09,2.65-19.36C156.53,154.15,153.12,154.12,150.15,153.39ZM153.6,136c7.73,0,12.43-3.45,14.77-10.83,1.68-5.3,0-9.63-5.17-10.89a29.44,29.44,0,0,0-11.42-.15c-6.07,1-10.52,7.81-9.77,14C142.62,133.11,146.85,136,153.6,136Z" transform="translate(-5.68 -5.67)"/>
    <path d="M71.45,120.77,48.17,134l-7.42-16.64c6.62-3.87,13.2-7.69,19.75-11.55,3.23-1.91,6.7-3.55,9.55-5.92,8.35-6.94,18.09-4.5,28-5-4.37,24.1-8.72,47.75-12.93,71.42-1.52,8.51-2.61,17.1-4.22,25.6a4.75,4.75,0,0,1-3.49,2.87c-6.13.3-12.3.14-18.94.14C62.72,170.49,67,146.23,71.45,120.77Z" transform="translate(-5.68 -5.67)"/>
    <path d="M225.7,148c1.19-7.79,2.16-14.92,3.5-22a4.47,4.47,0,0,1,3.18-2.82c5.46-.3,10.94-.13,16.66-.13-1.46,8.47-2.84,16.44-4.32,25h25.62c-1.21,6.61-2.31,12.64-3.47,18.93H241.44c-1.54,8.38-3,16.5-4.55,24.84h-19c1.41-8.21,2.77-16.16,4.23-24.62H196.75L200.27,148Z" transform="translate(-5.68 -5.67)"/>
  </g>
</svg>
