<svg id="cards" xmlns="http://www.w3.org/2000/svg" viewBox="0 0 293 167.87">
  <title>cards</title>
  <g>
    <path d="M148,4.9h131c8.51,0,9.39.89,9.39,9.52q0,69.73,0,139.48c0,7.85-1.12,9-8.95,9H15.91c-8.12,0-9.15-1.05-9.15-9.28q0-69.74,0-139.47c0-8.2,1-9.21,9.21-9.21Zm50.18,147.62H278c.13-1.63.32-2.93.32-4.23,0-42.83-.05-85.66.11-128.49,0-4.24-1.6-4.89-5.25-4.87-23.34.12-46.67.06-70,.07-1.61,0-3.23.18-5.08.29Zm-90.52-.05a20.31,20.31,0,0,0,2.53.37c24.64,0,49.29-.05,73.93.11,4.23,0,3.88-2.4,3.88-5.16,0-42.62-.07-85.24.08-127.86,0-4-1.25-5-5.1-5-23.31.15-46.62.21-69.93,0-4.76-.05-5.76,1.52-5.74,5.95.14,42.12.08,84.24.09,126.36C107.35,148.83,107.51,150.46,107.61,152.47Zm-10.72.05V15.81H17.21V152.52Z"/>
    <path d="M257.07,69.14c.28,3.41-1.05,5.65-4.59,5.83-3.34.16-5-1.56-5.49-5-.69-5.43-4.15-8.31-9-8a8.32,8.32,0,0,0-7.88,8.16c0,4.65,3.37,8,8.59,8.59,10.55,1.1,17.09,6.48,18.82,15.48,1.54,8-2.75,15.31-11.79,20.46-1.09.62-1.52,2.3-2.5,3.24-1.44,1.37-3.09,3.49-4.65,3.49s-3.3-2.06-4.74-3.44-2.3-3.41-3.88-4.47c-5.14-3.44-8.51-7.84-9.16-14.13-.33-3.25.1-6.46,3.85-7s5.6,1.8,6.17,5.59c.76,5,3.88,7.78,8.26,7.68s7.12-2.46,8.18-6.67a8,8,0,0,0-6.18-9.82c-1.77-.41-3.65-.37-5.45-.68a19,19,0,0,1-15.48-15c-1.38-7.28,2.71-15.33,9.46-19.47,1.72-1.05,2.66-3.3,4.2-4.75,1.35-1.26,3-3,4.58-3s3.25,1.67,4.63,2.89c1.71,1.53,2.89,3.75,4.76,5C253.36,57.7,256.61,62.53,257.07,69.14Z"/>
    <path d="M176.6,84.19a44.53,44.53,0,0,1-2.53,4.47q-10.62,14.78-21.35,29.45c-3.53,4.8-6.71,4.77-10.2,0-7.36-10.05-14.83-20-21.82-30.34-1.23-1.81-1.45-5.79-.28-7.52,7.16-10.59,14.79-20.86,22.39-31.14,3.22-4.36,6.45-4.45,9.61-.16,7.49,10.16,14.82,20.44,22.14,30.73A25.08,25.08,0,0,1,176.6,84.19Zm-11.45-.48L147.58,59.56c-5.7,7.87-10.92,15-15.94,22.19a4.26,4.26,0,0,0-.06,3.87c5.09,7.38,10.4,14.61,16,22.41C153.62,99.71,159.32,91.79,165.15,83.71Z"/>
    <path d="M59.8,59.05c8.79-5,16.53-4.59,23.55,2.29S91.66,79.89,85.93,90c-5.81,10.22-14.74,17-25.26,21.76-1.12.51-2.78.91-3.77.46-13.83-6.45-25.76-15-29.4-30.95C24.62,68.56,33,56.39,44.89,56,49.28,55.85,53.73,57.74,59.8,59.05ZM79.29,78c0-6-1.85-9.67-6.37-11.56-3.8-1.58-6.73,0-9.23,2.92-4.52,5.18-6.32,5.17-10.93,0s-11.35-4.63-14.12,1.75C37.37,74,36.91,78.28,38.12,81c2.05,4.72,4.93,9.69,8.84,12.87,11.77,9.6,10.18,10.14,22.63,0C75,89.6,79,84.15,79.29,78Z"/>
  </g>
</svg>
