<svg id="arrow" xmlns="http://www.w3.org/2000/svg" viewBox="0 0 342 300">
  <title>g-arrow</title>
  <path d="M1,279V23c.67-1.22,1.35-2.44,2-3.67,1.43-2.67,2.24-6.1,4.41-7.87C12.25,7.53,17.77,4.44,23,1H161V50.72c4.54-.26,8.46-.74,12.38-.67,11.27.2,22.53.7,33.79.93,13.69.27,26.78,3.66,39.76,7.53a192.8,192.8,0,0,1,19.73,6.63,152.76,152.76,0,0,1,21.15,10.45c6.13,3.78,4.85,12.52-1.71,15.39-9,3.93-17.34,1.83-25.87-2.09-10.25-4.71-20.65-9.35-31.4-12.67A120.86,120.86,0,0,0,201,71.14c-13.14-.84-26.38-.22-39.79-.22V227.31c26.58,5.57,81-.79,105-21.31-1.71,0-3.19,0-4.67,0-10.26.32-20.54,1.14-30.78.79-5-.18-10.2-2-14.88-4-4.22-1.83-6-6.36-5.63-10.71.38-4.09,1.92-8.45,6.86-9.57,5.85-1.33,11.75-3.2,17.65-3.32,12.42-.25,24.86.76,37.28.75,14.1,0,28.19-.79,42.29-.87,10.64-.05,21.18.79,28.73,9.94v14c-1.43,4.88-2.78,9.79-4.3,14.65-3.08,9.9-6.27,19.77-9.38,29.67-.24.77-.11,1.66-.34,2.44-1.6,5.59-2.86,11.32-5.06,16.67a11.13,11.13,0,0,1-5.9,5.36,29.64,29.64,0,0,1-20,.46c-11.62-3.63-16.61-12-12.47-23.25,2-5.41,3.95-10.83,6.46-17.7-41.73,23.32-85.19,30.27-131,27.14V301H22c-3.54-2-7.18-3.93-10.6-6.16C5.68,291.1,3.86,284.68,1,279Zm159-20.95c0-9.68.09-17.66-.09-25.62a4.28,4.28,0,0,0-2.14-3.24c-2.29-.77-4.84-.71-7.23-1.21-9.21-1.95-18.7-3.13-27.51-6.23a148.9,148.9,0,0,1-26.83-12.86c-17.27-10.34-31.42-23.47-37.77-43.7C54.18,151.67,56,138.9,61,126.46c5.15-12.73,15.23-22,25.76-30.15C96.34,89,107,82.8,118.9,79.56c13.44-3.64,26.83-7.47,41.09-11.46,0-3.63,0-8.75,0-13.87,0-2.58-.81-3.17-3.69-2.54-6.85,1.49-13.92,2-20.79,3.38-9.68,2-19.39,4-28.85,6.86-6.63,2-12.85,5.32-19.3,7.93A118.3,118.3,0,0,0,51.92,92.74c-8.63,7.89-16.45,16.45-21.94,27.14a79.52,79.52,0,0,0-8.92,29.94c-.82,9.77,1.21,19.07,4.39,28.44,5.44,16,15.75,28.48,28,39.23,7.59,6.65,16.61,11.87,25.5,16.8a197.15,197.15,0,0,0,27.3,12.49c7.72,2.85,15.93,4.45,24,6.11C139.85,254.84,149.52,256.26,160,258.05Z" transform="translate(-1 -1)"/>
</svg>
