<?xml version="1.0" encoding="utf-8"?>
<!-- Generator: Adobe Illustrator 23.0.0, SVG Export Plug-In . SVG Version: 6.00 Build 0)  -->
<svg version="1.1" id="ga" xmlns="http://www.w3.org/2000/svg" xmlns:xlink="http://www.w3.org/1999/xlink" x="0px" y="0px"
	 viewBox="0 0 479 312" style="enable-background:new 0 0 479 312;" xml:space="preserve">
<g>
	<path d="M247,0v113h-35.9V35.4c-6.3,0-12.2-0.2-18.1,0.2c-1.1,0.1-2.3,1.9-3,3.2c-12.5,23.4-25,46.8-37.4,70.3
		c-10.4,19.8-20.7,39.6-31.1,59.3c-8.6,16.4-17.4,32.7-26.1,49c-0.8,1.5-1.4,3-2.2,4.9h117.4V179h-63.5
		c5.3-10.8,10.2-21.1,15.4-31.3c0.6-1.2,2.7-2.1,4.1-2.1c26.5-0.1,53-0.1,79.9-0.1v117.1H25.8c3.5-7,6.8-13.9,10.3-20.6
		c5.8-11.2,11.8-22.3,17.7-33.5c15.8-30.3,31.5-60.6,47.3-90.9c10.4-20,20.6-40.1,31-60.1c9.3-18,18.8-36.1,28.2-54.2
		c0.4-1.1,0.7-2.2,0.8-3.4H247z"/>
	<path d="M318,0c3,6.7,5.8,13.6,9.2,20.1c7.6,14.8,15.5,29.5,23.3,44.3c14.5,27.7,29,55.5,43.5,83.2c7.8,15.1,15.4,30.3,23.2,45.3
		c11.3,21.9,22.6,43.7,33.9,65.5c0.7,1.3,1.3,2.6,2.3,4.7c-13.6,0-26.5,0.1-39.5-0.2c-1.3,0-3-2.3-3.9-3.9
		c-11.1-21.3-22.1-42.6-33.2-63.9c-0.8-1.5-2.3-2.7-2.6-4.3c-2.6-11.7-10.5-12.5-20.3-12.1c-17.6,0.7-35.3,0.2-53,0.2h-5.8v83.8H257
		V0H318z M295.4,41.5v103.7h55.1L295.4,41.5z"/>
	<path d="M0,312c5-9.9,10-19.8,15-29.7c0.1-0.3,0.6-0.5,0.6-0.8c2-9.2,8.3-9.2,15.8-9.2c140.7,0.2,281.3,0.2,422,0
		c4.2,0,6.3,1.4,8.3,5.3c5.5,10.9,11.5,21.5,17.4,32.3c-0.3,0.7-0.5,1.9-1,2c-1.1,0.2-2.3,0.2-3.5,0.1L0,312z"/>
</g>
</svg>
