<svg id = "moving" xmlns="http://www.w3.org/2000/svg" viewBox="0 0 203 195">
  <title>moving</title>
  <g>
    <path d="M195.5,133v56h-56V164.3h-10V189h-56V164.3h-10V189H7.5V133.53H63.6V156.8H73.81V133.5h55.73v23.33h10.21V133h25.61v-7.2H140V70.12H165.2V61.88c-2.57,0-4.77.3-6.87-.05-10.89-1.84-19.5,1.73-25.65,10.81-1.55,2.29-3.09,5.14-3.16,7.77-.31,13.32-.14,26.66-.14,40v5.1H74v-55a7.26,7.26,0,0,1,1.31-.32q17.5,0,35-.06c16.17,0,16.21,0,27.17-11.91A8.51,8.51,0,0,0,139.53,53c.12-15.66,0-31.33,0-47h56V62H172.62v8H195.5v56H172.62v7ZM187.42,14.22H147.75V47l1.37,1,19.62-21.4c7,9,1.42,18.9,4.25,27.06h14.43ZM55.44,164.3H46.16v12L20.41,160.84,46.6,145.21v11.62h8.75V141.3H15.78v39.45H55.44Zm92.11,16.53h39.64V141.29h-15V164H147.55ZM94.29,79.72h-7C89.18,92,91,103.9,92.83,115.63c7,.79,7,.78,7.8-5.61.28-2.28.79-4.54,1.41-8,.62,4.59.84,8.06,1.67,11.38a4.31,4.31,0,0,0,3.29,2.45c1.45,0,4-1,4.21-1.91,2-11.24,3.55-22.54,5.3-34.23h-6.89c-.66,5.17-1.3,10.13-1.94,15.08a51.84,51.84,0,0,1-2-10.47c-.65-5.55-1.06-5.81-7-4.08-.59,4.57-1.18,9.19-1.78,13.81L96,94C95.42,89.31,94.87,84.62,94.29,79.72Zm53.36-1.58v39.72h17.71V78.14ZM81.56,180.78h39.72V164.22H81.56Zm39.71-23.84V141.23H81.73v15.71Zm66.06-39V78.17H172.67v39.72Zm-22,39V141.18H147.68V156.9Zm0-114.87L152.47,53.82h12.84Z"/>
    <path d="M63.5,6V61.57H7.5V6ZM55.27,53.94V14.23H15.73V53.94Z"/>
    <path d="M129.5,6V61.57h-56V6Zm-8.14,8.32H81.64V53.86h39.72Z"/>
    <path d="M63.19,70.52v55H8v-55ZM55.42,78.2H15.7v39.6H55.42Z"/>
  </g>
</svg>
