<svg id = "spade" xmlns="http://www.w3.org/2000/svg" viewBox="0 0 389.2 378.35">
  <title>Ресурс 1</title>
  <path d="M389.2,237.07c-6.41,19.79-14.41,38.39-31.85,51.6-37.16,28.14-96.82,29.49-135.27,2.58-3.31-2.32-6.68-4.56-10.91-7.44,1.47,36.2,34.82,72.74,68.86,77,6.32.79,14.42.93,12.86,9.22-.65,3.49-9.24,7.78-14.26,7.83-56.19.55-112.38.35-168.57.33-1.94,0-4.39.52-5.74-.44-3.46-2.45-6.43-5.59-9.6-8.46,3-2.69,5.7-7.47,8.87-7.76,43.27-3.94,61.3-34.05,73.76-70.12.71-2.07.75-4.37,1.35-8.1-3.2,1.88-5.19,2.8-6.89,4.09C135.75,314.69,96,316.92,55.25,302,1.68,282.36-16.64,223.77,16.83,177.74c13.84-19,31.69-35.37,48.89-51.7,19.78-18.8,42-35.16,61.06-54.57C146.92,51,164.9,28.39,183.36,6.32c6.88-8.24,16.1-8.76,21.82.43,19.41,31.22,46,55.92,72.87,80.33,20.78,18.9,42.52,36.74,63.15,55.8,22.54,20.82,42.38,43.71,48,75.46Zm-194.3-207c-1.65,1.11-2.81,1.54-3.48,2.37C161.78,69.58,125.43,99.72,90,131c-19.48,17.21-38.76,35.51-54.2,56.24-28.69,38.5-10.26,87.64,35.85,101.38,45.56,13.58,83.83-1.32,109.29-42.54,9.11-14.74,17.62-14.73,26.5,0,24.21,40.19,62,55.45,107.1,43.19,48.61-13.23,67.95-64.56,36.74-103.88C332.59,161.78,308.93,142,287.06,121,262.92,97.72,238.14,75.12,214,51.9,207.05,45.25,201.26,37.43,194.9,30.08ZM161.16,360.27h65.93L194.32,315Z"/>
</svg>
