<svg id="Star1" xmlns="http://www.w3.org/2000/svg" viewBox="0 0 161 159">
  <title>Монтажная область 1</title>
  <path d="M2,60.62c2.32-1.15,4.54-2.87,7-3.35,13.56-2.65,27.21-4.85,40.75-7.59a9.65,9.65,0,0,0,5.83-4.34C62.05,33.32,68,21,74.45,9,75.57,6.92,78.11,4.29,80,4.3S84.48,6.88,85.62,9c6.65,12.1,13,24.35,19.32,36.66a8.65,8.65,0,0,0,7.13,5.23q19.26,2.9,38.43,6.38c2.62.48,5,2.23,7.5,3.39v5c-11.17,11.54-22.39,23-33.44,34.69-.91,1-1.1,3-.9,4.51,1.84,13.33,3.66,26.67,5.89,39.93.75,4.52.52,8.18-3.55,10.87h-2a7,7,0,0,0-1.45-1.33c-13.67-6.82-27.32-13.68-41.1-20.27-1.42-.68-3.89-.13-5.48.65-11.76,5.8-23.44,11.77-35.12,17.76A52.61,52.61,0,0,0,36,155.62H34c-4.1-2.66-4.37-6.33-3.66-10.86,2.12-13.46,3.88-27,5.6-40.51.22-1.78.07-4.32-1-5.44C24.08,87.62,13,76.65,2,65.62Zm15.53,5.52C27,75.89,35.61,84.45,43.78,93.4a11.88,11.88,0,0,1,2.65,7.88c-.27,6-1.49,11.87-2.28,17.81-.91,6.78-1.77,13.57-2.78,21.45,11.86-6,22.57-11.3,33.13-16.86a9.1,9.1,0,0,1,9.34-.1c9.91,5.09,20,9.89,30,14.77,1.23.6,2.57,1,4.66,1.74-1.86-12.39-3.33-23.92-5.42-35.33-.88-4.84.32-8.13,3.73-11.54,8.44-8.44,16.53-17.23,25.34-26.5-2.2-.58-3.55-1-4.95-1.29-10.17-1.74-20.33-3.52-30.53-5.08-4.11-.63-7-2.28-8.81-6.25C95,47.92,91.62,42,88.41,36c-2.6-4.89-5.26-9.76-8.44-15.65-4.91,9.66-9.92,18-13.41,26.83S57.35,59.81,48.05,60.72C38.23,61.68,28.54,64.12,17.53,66.14Z"/>
</svg>
